<?xml version="1.0" encoding="utf-8"?>
<!-- Generator: Adobe Illustrator 16.0.0, SVG Export Plug-In . SVG Version: 6.00 Build 0)  -->
<!DOCTYPE svg PUBLIC "-//W3C//DTD SVG 1.1//EN" "http://www.w3.org/Graphics/SVG/1.1/DTD/svg11.dtd">
<svg version="1.1" id="Layer_1" xmlns="http://www.w3.org/2000/svg" xmlns:xlink="http://www.w3.org/1999/xlink" x="0px" y="0px"
	 width="37px" height="37px" viewBox="0 0 37 37" enable-background="new 0 0 37 37" xml:space="preserve">
<circle fill="#F1F0F8" cx="18.572" cy="18.572" r="15.793"/>
<linearGradient id="SVGID_1_" gradientUnits="userSpaceOnUse" x1="18.5718" y1="-53.8413" x2="18.5718" y2="26.2862">
	<stop  offset="0" style="stop-color:#589FC6"/>
	<stop  offset="0" style="stop-color:#3576A4"/>
	<stop  offset="0.0147" style="stop-color:#78B5D0"/>
	<stop  offset="0.0386" style="stop-color:#549EC5"/>
	<stop  offset="1" style="stop-color:#326297"/>
</linearGradient>
<path fill="url(#SVGID_1_)" stroke="#39698D" stroke-width="1.2239" stroke-miterlimit="10" d="M18.572,0.997
	c-9.706,0-17.575,7.87-17.575,17.575c0,9.706,7.87,17.575,17.575,17.575c9.706,0,17.575-7.869,17.575-17.575
	C36.147,8.866,28.278,0.997,18.572,0.997z M18.572,33.358c-8.166,0-14.786-6.619-14.786-14.786c0-8.166,6.62-14.786,14.786-14.786
	c8.167,0,14.786,6.621,14.786,14.786C33.358,26.739,26.739,33.358,18.572,33.358z"/>
<g>
	<linearGradient id="SVGID_2_" gradientUnits="userSpaceOnUse" x1="14.582" y1="19.2378" x2="23.8945" y2="19.2378">
		<stop  offset="0" style="stop-color:#589FC6"/>
		<stop  offset="0.0147" style="stop-color:#78B5D0"/>
		<stop  offset="0.0386" style="stop-color:#549EC5"/>
		<stop  offset="0.1172" style="stop-color:#4D94BE"/>
		<stop  offset="0.1972" style="stop-color:#4C91BA"/>
		<stop  offset="0.2889" style="stop-color:#498EB7"/>
		<stop  offset="0.3848" style="stop-color:#4485B3"/>
		<stop  offset="0.4735" style="stop-color:#4382B1"/>
		<stop  offset="0.5552" style="stop-color:#407DAE"/>
		<stop  offset="0.6439" style="stop-color:#3C7CAB"/>
		<stop  offset="0.741" style="stop-color:#3677A6"/>
		<stop  offset="0.8238" style="stop-color:#3576A4"/>
		<stop  offset="0.9114" style="stop-color:#326FA2"/>
		<stop  offset="1" style="stop-color:#326297"/>
	</linearGradient>
	<path fill="url(#SVGID_2_)" stroke="#39698D" stroke-width="1.2723" stroke-miterlimit="10" d="M17.285,23.625l-0.06-0.781
		c-0.179-1.622,0.361-3.396,1.863-5.198c1.352-1.592,2.103-2.764,2.103-4.116c0-1.532-0.962-2.553-2.854-2.584
		c-1.082,0-2.283,0.36-3.033,0.932l-0.722-1.893c0.992-0.721,2.703-1.201,4.295-1.201c3.454,0,5.018,2.133,5.018,4.416
		c0,2.043-1.141,3.515-2.585,5.228c-1.32,1.561-1.802,2.883-1.71,4.417l0.028,0.781H17.285z M16.625,27.83
		c0-1.112,0.75-1.893,1.804-1.893c1.048,0,1.769,0.78,1.769,1.893c0,1.051-0.69,1.861-1.8,1.861
		C17.345,29.691,16.625,28.88,16.625,27.83z"/>
</g>
</svg>
